<svg width="80" height="45" viewBox="0 0 80 45" fill="none" xmlns="http://www.w3.org/2000/svg">
    <path d="M17.3266 5.01288C16.7372 4.23518 16.0451 3.54104 15.2691 2.94948C14.5053 2.34972 13.655 1.86912 12.7472 1.52404C11.8413 1.18749 10.8827 1.01468 9.91627 1.01367C8.95238 0.997902 7.9925 1.14138 7.07536 1.43831C5.24322 2.01048 3.61045 3.23257 2.70933 4.92117C2.4813 5.33849 2.29307 5.77637 2.14713 6.22898C2.00699 6.6848 1.90562 7.15163 1.8441 7.62452C1.72267 8.5668 1.77334 9.5233 1.99362 10.4475V10.4295C2.12879 10.8887 2.31328 11.3319 2.54386 11.7513C2.76501 12.1771 3.01688 12.5862 3.29745 12.9754C3.87072 13.7496 4.53468 14.4524 5.27512 15.0687C6.02076 15.6783 6.82169 16.2169 7.66746 16.6775C8.52273 17.1161 9.42584 17.5129 10.317 17.9315C10.7576 18.1309 11.2141 18.3482 11.6487 18.5974C12.0833 18.8466 12.508 19.1038 12.9187 19.3949C13.7431 19.9584 14.5097 20.6021 15.2073 21.3167C15.916 22.0249 16.5202 22.8304 17.0016 23.709C17.2378 24.1586 17.4263 24.6317 17.5638 25.1205C17.9644 26.6004 17.8734 28.1705 17.3046 29.5942C16.9505 30.5422 16.4307 31.4198 15.7695 32.1859C15.4251 32.5511 15.0518 32.8877 14.6531 33.1927C14.4537 33.3502 14.2544 33.4897 14.055 33.6373C13.8557 33.7848 13.6423 33.9164 13.425 34.036C12.5707 34.5536 11.6517 34.9558 10.6918 35.2322C9.73291 35.5033 8.73957 35.6329 7.74322 35.6169C6.75023 35.5926 5.76619 35.4227 4.82257 35.1126C3.88978 34.7854 3.0053 34.3341 2.19298 33.7708C1.37932 33.2141 0.642064 32.5533 0 31.8051C1.32757 33.255 3.01356 34.3297 4.88836 34.9212C6.75852 35.4814 8.75185 35.4814 10.622 34.9212C12.4775 34.357 14.1549 33.3211 15.4904 31.9148C16.1019 31.1772 16.5826 30.3404 16.9119 29.4407C17.2492 28.5503 17.4031 27.601 17.3644 26.6496C17.3152 25.6986 17.0551 24.7704 16.6029 23.9323C16.1358 23.0932 15.551 22.3252 14.8664 21.6516C14.1891 20.9635 13.4444 20.345 12.6435 19.8055C12.2448 19.5324 11.8321 19.2812 11.4095 19.046C10.9868 18.8107 10.5522 18.6114 10.1057 18.402C9.22049 17.9814 8.32935 17.5846 7.44019 17.1201C6.56325 16.6361 5.73418 16.0701 4.96412 15.4295C4.19799 14.7826 3.51197 14.0464 2.92065 13.2366C2.62326 12.8311 2.35669 12.404 2.12321 11.9586C1.88275 11.5154 1.69091 11.0476 1.55104 10.5631V10.5452C1.08626 8.56923 1.3786 6.49087 2.37041 4.71981C2.86487 3.84817 3.53247 3.08694 4.33214 2.48297C5.129 1.88134 6.02889 1.43005 6.98764 1.15123C8.89552 0.556504 10.9493 0.631058 12.809 1.36256C13.7214 1.73551 14.5718 2.24505 15.3309 2.87372C16.0923 3.49001 16.7634 4.21008 17.3246 5.01288" fill="#101014"/>
    <path d="M18.7857 5.01273C18.1964 4.23504 17.5043 3.5409 16.7283 2.94934C15.9638 2.34953 15.1128 1.86894 14.2044 1.5239C13.2985 1.18702 12.3399 1.0142 11.3735 1.01353C10.4102 0.997907 9.45104 1.14138 8.53455 1.43817C6.70241 2.00237 5.06764 3.23243 4.16852 4.92103C3.94048 5.33835 3.75225 5.77623 3.60632 6.22884C3.46523 6.68441 3.36384 7.15133 3.30329 7.62438C3.17749 8.5681 3.22546 9.52687 3.44483 10.4533V10.4354C3.57876 10.8918 3.76053 11.3329 3.9871 11.7512C4.21338 12.1774 4.47058 12.5866 4.75664 12.9753C5.32976 13.749 5.99299 14.4517 6.73231 15.0686C7.47802 15.678 8.27894 16.2167 9.12466 16.6774C9.97793 17.116 10.883 17.5127 11.7722 17.9314C12.2148 18.1308 12.6693 18.3481 13.1039 18.5973C13.5385 18.8465 13.9632 19.1036 14.3739 19.3947C15.1993 19.9577 15.9667 20.6015 16.6645 21.3166C17.3739 22.0241 17.9782 22.8298 18.4588 23.7089C18.6959 24.1581 18.8843 24.6312 19.021 25.1204C19.1525 25.6112 19.2326 26.1143 19.2602 26.6216C19.2964 27.6357 19.1275 28.6467 18.7638 29.5941C18.4091 30.5418 17.8894 31.4193 17.2287 32.1858C16.8839 32.5504 16.5105 32.8871 16.1123 33.1926C15.9129 33.3501 15.7136 33.4896 15.5142 33.6371C15.3149 33.7847 15.1015 33.9162 14.8842 34.0359C14.0306 34.5534 13.1122 34.9556 12.153 35.232C10.2287 35.786 8.18184 35.7443 6.28176 35.1124C5.34486 34.7936 4.45506 34.3504 3.63622 33.7946C2.82208 33.2385 2.08474 32.5776 1.44324 31.8289C2.7699 33.2799 4.4562 34.3548 6.3316 34.945C8.20176 35.5052 10.1951 35.5052 12.0652 34.945C13.9277 34.3761 15.6098 33.3317 16.9456 31.9147C17.5571 31.177 18.0378 30.3403 18.3671 29.4406C18.705 28.5503 18.8596 27.601 18.8216 26.6495C18.7932 26.1777 18.7163 25.7101 18.5924 25.254C18.4612 24.7971 18.2821 24.3554 18.0581 23.9362C17.5923 23.0962 17.0074 22.328 16.3216 21.6555C15.6446 20.9669 14.8999 20.3484 14.0987 19.8094C13.7 19.5363 13.2873 19.2851 12.8667 19.0498C12.446 18.8146 12.0094 18.5973 11.5629 18.3879C10.6777 17.9673 9.78654 17.5706 8.89539 17.106C8.01966 16.6264 7.19127 16.0651 6.42131 15.4294C5.65841 14.7838 4.97511 14.0496 4.38582 13.2424C4.08908 12.8365 3.82255 12.4094 3.58837 11.9645C3.34791 11.5213 3.15608 11.0534 3.0162 10.569V10.551C2.55143 8.57508 2.84376 6.49671 3.83558 4.72565C4.32457 3.85327 4.98672 3.09004 5.78136 2.48283C6.58112 1.88114 7.48362 1.42989 8.44483 1.15109C10.3533 0.555893 12.4079 0.630451 14.2682 1.36241C15.1797 1.73585 16.0294 2.24536 16.7881 2.87358C17.5494 3.48997 18.2204 4.21002 18.7818 5.01273" fill="#101014"/>
    <path d="M20.2437 5.01288C19.6546 4.23569 18.9632 3.54162 18.1883 2.94948C17.4235 2.35008 16.5726 1.86953 15.6644 1.52404C14.7584 1.18749 13.7999 1.01468 12.8334 1.01367C11.8696 0.997902 10.9097 1.14138 9.99253 1.43831C8.1604 2.01048 6.52762 3.23257 5.6285 4.92117C5.40047 5.33849 5.21223 5.77637 5.0663 6.22898C4.92456 6.68449 4.82251 7.15141 4.76127 7.62452C4.63618 8.56836 4.68482 9.52713 4.90482 10.4535V10.4355C5.04085 10.8944 5.2253 11.3375 5.45505 11.7573C5.67834 12.1817 5.9329 12.5888 6.21662 12.9754C6.78974 13.7491 7.45297 14.4518 8.1923 15.0687C8.93794 15.6783 9.73886 16.2169 10.5846 16.6775C11.4399 17.1161 12.343 17.5129 13.2342 17.9315C13.6748 18.1309 14.1313 18.3482 14.5659 18.5974C15.0005 18.8466 15.4252 19.1038 15.8358 19.3949C16.6658 19.9524 17.4385 20.5908 18.1425 21.3008C18.8518 22.0084 19.456 22.814 19.9367 23.6931C20.4159 24.5926 20.6883 25.5876 20.7342 26.6058C20.771 27.6198 20.6028 28.6308 20.2397 29.5783C19.885 30.526 19.3653 31.4034 18.7047 32.17C18.3591 32.5347 17.9851 32.8713 17.5862 33.1767C17.3869 33.3342 17.1875 33.4738 16.9881 33.6213C16.7888 33.7689 16.5755 33.9004 16.3582 34.02C15.5045 34.5376 14.5861 34.9398 13.6269 35.2162C12.6673 35.4872 11.6733 35.6169 10.6763 35.601C9.68336 35.5767 8.69932 35.4067 7.75569 35.0966C6.81862 34.7783 5.92876 34.335 5.11016 33.7788C4.2965 33.2221 3.55924 32.5613 2.91718 31.8131C4.24475 33.263 5.93074 34.3377 7.80553 34.9291C9.67569 35.4894 11.669 35.4894 13.5392 34.9291C15.3958 34.3632 17.0734 33.3244 18.4076 31.9148C19.019 31.1772 19.4998 30.3404 19.8291 29.4407C20.1664 28.5503 20.3203 27.601 20.2816 26.6496C20.2541 26.1777 20.1772 25.71 20.0523 25.2541C19.9228 24.797 19.7443 24.3552 19.52 23.9363C19.053 23.0972 18.4682 22.3292 17.7836 21.6556C17.1062 20.9675 16.3615 20.349 15.5607 19.8095C15.162 19.5364 14.7493 19.2852 14.3267 19.05C13.904 18.8147 13.4694 18.6153 13.0228 18.406C12.1377 17.9594 11.2465 17.5707 10.3673 17.1062C9.49131 16.6271 8.66288 16.0656 7.89325 15.4295C7.12599 14.7832 6.43925 14.0469 5.8478 13.2366C5.55181 12.8302 5.28531 12.4031 5.05035 11.9586C4.81072 11.5151 4.61892 11.0472 4.47818 10.5631V10.5452C4.01519 8.56893 4.30818 6.49098 5.29955 4.71981C5.79037 3.84921 6.45386 3.08804 7.24931 2.48297C8.04618 1.88134 8.94606 1.43005 9.90482 1.15123C11.8127 0.556504 13.8665 0.631058 15.7262 1.36256C16.6386 1.73551 17.489 2.24505 18.2481 2.87372C19.01 3.48947 19.6811 4.20962 20.2417 5.01288" fill="#101014"/>
    <path d="M21.7027 5.01288C21.1134 4.23518 20.4212 3.54104 19.6453 2.94948C18.8807 2.34968 18.0298 1.86908 17.1213 1.52404C16.2161 1.18732 15.2582 1.0145 14.2924 1.01367C13.3285 0.997902 12.3686 1.14138 11.4515 1.43831C9.61934 2.00251 7.98656 3.23257 7.08545 4.92117C6.85741 5.33849 6.66918 5.77637 6.52325 6.22898C6.38216 6.68455 6.28077 7.15147 6.22022 7.62452C6.09545 8.56828 6.14341 9.52687 6.36176 10.4535V10.4355C6.49693 10.8947 6.68142 11.3379 6.912 11.7573C7.13598 12.1813 7.3905 12.5884 7.67357 12.9754C8.24684 13.7496 8.91079 14.4524 9.65124 15.0687C10.3965 15.6787 11.1975 16.2174 12.0436 16.6775C12.8988 17.1161 13.802 17.5129 14.6931 17.9315C15.1337 18.1309 15.5902 18.3482 16.0248 18.5974C16.4595 18.8466 16.8841 19.1038 17.2928 19.3949C18.1183 19.9578 18.8856 20.6016 19.5835 21.3167C20.2922 22.0249 20.8963 22.8304 21.3777 23.709C21.6131 24.159 21.8015 24.632 21.9399 25.1205C22.3405 26.6004 22.2496 28.1705 21.6807 29.5942C21.3266 30.5422 20.8069 31.4198 20.1457 32.1859C19.8008 32.5506 19.4275 32.8872 19.0292 33.1927C18.8299 33.3502 18.6305 33.4897 18.4311 33.6373C18.2318 33.7848 18.0185 33.9164 17.8012 34.036C16.9477 34.5539 16.0293 34.9562 15.0699 35.2322C13.1457 35.7861 11.0988 35.7444 9.19869 35.1126C8.26196 34.7934 7.3722 34.3502 6.55315 33.7948C5.73983 33.2376 5.00262 32.5768 4.36017 31.8291C5.68774 33.279 7.37373 34.3537 9.24853 34.9451C11.1187 35.5053 13.112 35.5053 14.9822 34.9451C16.846 34.3766 18.5294 33.3322 19.8665 31.9148C20.4773 31.1767 20.9579 30.3401 21.288 29.4407C21.6244 28.5501 21.7783 27.6009 21.7406 26.6496C21.6913 25.6986 21.4312 24.7704 20.979 23.9323C20.5119 23.0932 19.9272 22.3252 19.2425 21.6516C18.5647 20.964 17.8201 20.3455 17.0197 19.8055C16.6209 19.5324 16.2083 19.2812 15.7856 19.046C15.363 18.8107 14.9284 18.6114 14.4818 18.402C13.5966 17.9814 12.7055 17.5846 11.8163 17.1201C10.9396 16.641 10.1105 16.0796 9.34023 15.4435C8.57361 14.7971 7.88753 14.0608 7.29677 13.2505C6.99937 12.8451 6.73281 12.4179 6.49932 11.9726C6.25886 11.5294 6.06703 11.0615 5.92715 10.5771V10.5591C5.46238 8.58319 5.75471 6.50482 6.74653 4.73377C7.23959 3.85781 7.90648 3.09187 8.70626 2.48297C9.50408 1.8817 10.4045 1.43045 11.3638 1.15123C13.2716 0.556504 15.3254 0.631058 17.1851 1.36256C18.0969 1.73552 18.9466 2.24507 19.7051 2.87372C20.4663 3.49011 21.1374 4.21017 21.6987 5.01288" fill="#101014"/>
    <path d="M14.8095 0.895996C15.7169 1.08593 16.5852 1.42909 17.3773 1.91075C18.9929 2.89798 20.2257 4.4042 20.8741 6.18308C21.528 7.97606 21.528 9.94233 20.8741 11.7353C20.222 13.5143 18.9885 15.0211 17.3733 16.0116C16.5817 16.4932 15.7152 16.8389 14.8095 17.0344C16.5406 16.4634 18.057 15.3794 19.1576 13.9263C20.2436 12.4967 20.8368 10.7535 20.8482 8.9582C20.8461 7.16298 20.2558 5.4179 19.1676 3.99009C18.0659 2.53685 16.5447 1.45683 14.8095 0.895996" fill="#101014"/>
    <path d="M13.3572 0.895996C14.262 1.08612 15.1277 1.4293 15.917 1.91075C17.5329 2.89824 18.7663 4.4043 19.4158 6.18308C19.7374 7.07368 19.902 8.01332 19.9023 8.96019C19.8963 9.9066 19.7291 10.8451 19.4079 11.7353C18.7562 13.5128 17.5252 15.0191 15.9131 16.0116C15.1241 16.4927 14.2603 16.8384 13.3572 17.0344C15.086 16.4619 16.6001 15.3781 17.6993 13.9263C18.784 12.4961 19.3764 10.7531 19.3879 8.9582C19.3857 7.16333 18.7961 5.4185 17.7093 3.99009C16.6086 2.53849 15.0899 1.45873 13.3572 0.895996" fill="#101014"/>
    <path d="M11.9092 0.943848C12.8115 1.13196 13.6751 1.47242 14.463 1.95063C16.0697 2.93172 17.2961 4.42873 17.9419 6.19704C18.262 7.08245 18.4259 8.01671 18.4263 8.9582C18.4238 9.89951 18.26 10.8334 17.9419 11.7194C17.4657 13.0372 16.6621 14.2122 15.6068 15.1339C14.5515 16.0557 13.2791 16.6939 11.9092 16.9885C13.6296 16.4189 15.1367 15.3407 16.2314 13.8964C17.3098 12.475 17.8988 10.7424 17.91 8.9582C17.9086 7.17397 17.3225 5.43937 16.2413 4.02C15.1454 2.57612 13.6336 1.50258 11.9092 0.943848" fill="#101014"/>
    <path d="M14.5812 17.4292C12.9185 17.4292 11.293 16.9361 9.9105 16.0123C8.52796 15.0886 7.4504 13.7755 6.81409 12.2393C6.17778 10.7032 6.01129 9.01277 6.33568 7.38195C6.66007 5.75113 7.46076 4.25313 8.63652 3.07738C9.81227 1.90162 11.3103 1.10092 12.9411 0.776534C14.5719 0.452144 16.2623 0.618633 17.7985 1.25495C19.3347 1.89126 20.6477 2.96882 21.5715 4.35136C22.4952 5.7339 22.9883 7.35932 22.9883 9.02209C22.9862 11.2511 22.0998 13.3883 20.5236 14.9645C18.9474 16.5407 16.8103 17.4271 14.5812 17.4292ZM14.5812 1.12935C13.0202 1.12935 11.4942 1.59225 10.1963 2.45952C8.8983 3.32678 7.88667 4.55946 7.28929 6.00167C6.69191 7.44388 6.5356 9.03085 6.84015 10.5619C7.14469 12.0929 7.8964 13.4993 9.00022 14.6031C10.104 15.7069 11.5104 16.4586 13.0414 16.7632C14.5725 17.0677 16.1594 16.9114 17.6016 16.314C19.0438 15.7167 20.2765 14.705 21.1438 13.4071C22.0111 12.1091 22.474 10.5831 22.474 9.02209C22.4718 6.92945 21.6396 4.92313 20.1599 3.44341C18.6802 1.96369 16.6739 1.13146 14.5812 1.12935V1.12935Z" fill="#101014"/>
    <path d="M12.6057 0.923828L12.3485 44.6818L12.0914 0.923828H12.6057Z" fill="#101014"/>
    <path d="M11.8753 0.923828L11.6181 44.6818L11.3609 0.923828H11.8753Z" fill="#101014"/>
    <path d="M11.1457 0.923828L10.8886 44.6818L10.6314 0.923828H11.1457Z" fill="#101014"/>
    <path d="M10.4167 0.923828L10.1596 44.6818L9.9024 0.923828H10.4167Z" fill="#101014"/>
    <path d="M25.8275 25.2582L27.243 24.409C28.2398 26.2431 29.3915 27.1602 30.6979 27.1602C31.2473 27.1604 31.788 27.0234 32.2709 26.7614C32.7363 26.5245 33.1253 26.161 33.3933 25.7128C33.6454 25.291 33.7784 24.8087 33.7781 24.3173C33.7661 23.7239 33.5681 23.1493 33.2119 22.6745C32.6896 21.9355 31.738 21.0444 30.357 20.0011C28.9761 18.9577 28.1122 18.1995 27.7653 17.7263C27.1966 16.9984 26.886 16.1022 26.8821 15.1785C26.8742 14.4832 27.054 13.7986 27.4025 13.1968C27.7513 12.5994 28.2593 12.1108 28.8698 11.7854C29.5002 11.4424 30.2075 11.2654 30.9252 11.271C31.6946 11.2693 32.4509 11.4701 33.1182 11.8531C33.808 12.2505 34.531 12.9702 35.2873 14.0122L33.9276 15.0429C33.3016 14.2123 32.77 13.6647 32.3327 13.4002C31.8977 13.1364 31.3981 12.9984 30.8893 13.0015C30.5881 12.99 30.2875 13.0382 30.0049 13.1432C29.7223 13.2482 29.4632 13.4081 29.2426 13.6135C29.0356 13.8049 28.8715 14.038 28.7612 14.2974C28.6508 14.5569 28.5968 14.8368 28.6026 15.1187C28.603 15.4821 28.6797 15.8415 28.8279 16.1733C29.035 16.5894 29.3153 16.9649 29.6553 17.2818C29.8746 17.4957 30.5916 18.0506 31.8064 18.9464C33.2498 20.0097 34.2393 20.9573 34.7749 21.7893C35.2787 22.5286 35.5558 23.3989 35.5724 24.2933C35.575 24.8849 35.454 25.4705 35.2171 26.0126C34.9802 26.5547 34.6327 27.0413 34.1968 27.4413C33.7566 27.8766 33.2335 28.2191 32.6586 28.4486C32.0836 28.678 31.4684 28.7897 30.8495 28.777C29.8722 28.7872 28.9142 28.5054 28.0983 27.9676C27.2756 27.4293 26.5166 26.5255 25.8215 25.2562" fill="#101014"/>
    <path d="M37.4462 13.3322V11.7014H46.575V13.3322H42.8608V28.3601H41.1623V13.3322H37.4462Z" fill="#101014"/>
    <path d="M55.7816 11.7014L63.5567 28.3601H61.7624L59.1428 22.8796H51.9658L49.3741 28.3601H47.518L55.3888 11.7014H55.7816ZM55.5722 15.2401L52.7174 21.2708H58.4131L55.5722 15.2401Z" fill="#101014"/>
    <path d="M66.2234 11.7014H69.5408C71.3909 11.7014 72.6442 11.7772 73.3008 11.9287C74.2465 12.1278 75.0969 12.6415 75.7131 13.386C76.3436 14.1607 76.6735 15.1369 76.6421 16.1352C76.6598 16.9772 76.4379 17.8069 76.0022 18.5276C75.5676 19.2228 74.9292 19.7672 74.174 20.0866C73.3766 20.4375 72.2814 20.6169 70.8885 20.6249L76.8793 28.3601H74.8199L68.8291 20.6249H67.8881V28.3601H66.2234V11.7014ZM67.8881 13.3322V18.9941L70.7569 19.018C71.8694 19.018 72.6921 18.9123 73.225 18.701C73.7388 18.5048 74.1761 18.1492 74.473 17.6863C74.7713 17.2223 74.9266 16.6808 74.9196 16.1292C74.9254 15.5876 74.7677 15.0568 74.4671 14.6061C74.1798 14.1629 73.7618 13.8201 73.2709 13.6253C72.7778 13.4299 71.9611 13.3322 70.8207 13.3322H67.8881Z" fill="#101014"/>
    <path d="M27.6957 30.8364H27.9948V31.2631C28.0984 31.1129 28.2347 30.9882 28.3935 30.8982C28.553 30.8158 28.7303 30.774 28.9098 30.7766C29.0681 30.7743 29.2251 30.8048 29.3709 30.8662C29.5167 30.9276 29.6482 31.0186 29.7571 31.1335C29.8712 31.2452 29.9613 31.3791 30.022 31.5268C30.0826 31.6745 30.1126 31.833 30.11 31.9927C30.1136 32.154 30.0845 32.3143 30.0246 32.464C29.9646 32.6137 29.875 32.7497 29.7611 32.8639C29.6532 32.9791 29.5225 33.0705 29.3773 33.1323C29.2321 33.1941 29.0756 33.2249 28.9178 33.2228C28.741 33.225 28.5661 33.1854 28.4074 33.1072C28.2442 33.0235 28.1008 32.9059 27.9868 32.7623V34.0142H27.6877L27.6957 30.8364ZM28.8919 31.0657C28.77 31.063 28.649 31.0857 28.5364 31.1324C28.4238 31.179 28.3222 31.2487 28.238 31.3368C28.1508 31.4256 28.0824 31.531 28.0369 31.6468C27.9913 31.7625 27.9696 31.8863 27.9728 32.0107C27.9706 32.1769 28.0111 32.341 28.0905 32.4871C28.1702 32.6287 28.2884 32.7448 28.4314 32.8221C28.5724 32.9043 28.7327 32.9476 28.8959 32.9477C29.056 32.9481 29.2132 32.9046 29.3504 32.8221C29.4922 32.7377 29.6091 32.6173 29.6893 32.4732C29.7713 32.3299 29.8146 32.1678 29.8149 32.0027C29.8151 31.8376 29.7718 31.6753 29.6893 31.5322C29.6104 31.3888 29.4939 31.2696 29.3524 31.1873C29.2127 31.1058 29.0536 31.0638 28.8919 31.0657V31.0657Z" fill="#101014"/>
    <path d="M32.7559 30.8362H33.0609V31.1751C33.1367 31.0574 33.235 30.9558 33.35 30.876C33.4431 30.8113 33.5537 30.7765 33.667 30.7764C33.7602 30.7793 33.851 30.8069 33.9302 30.8561L33.7747 31.1073C33.7255 31.0834 33.6718 31.0698 33.6172 31.0674C33.5089 31.0702 33.4057 31.1136 33.3281 31.189C33.2222 31.2936 33.1488 31.4265 33.1168 31.5718C33.0685 31.8347 33.0498 32.1022 33.0609 32.3693V33.1568H32.7559V30.8362Z" fill="#101014"/>
    <path d="M37.479 30.7763C37.6476 30.7735 37.8149 30.8077 37.9688 30.8766C38.1228 30.9455 38.2598 31.0474 38.3701 31.175C38.5799 31.408 38.6945 31.7113 38.6912 32.0248C38.6879 32.3383 38.5669 32.6391 38.3522 32.8676C38.2378 32.9831 38.1016 33.0749 37.9516 33.1375C37.8015 33.2001 37.6406 33.2323 37.478 33.2323C37.3154 33.2323 37.1544 33.2001 37.0043 33.1375C36.8543 33.0749 36.7181 32.9831 36.6038 32.8676C36.3892 32.6395 36.2682 32.339 36.2649 32.0258C36.2616 31.7126 36.3761 31.4096 36.5858 31.177C36.6962 31.0489 36.8334 30.9467 36.9878 30.8778C37.1422 30.8089 37.3099 30.7749 37.479 30.7783V30.7763ZM37.479 31.0713C37.359 31.0701 37.2401 31.0939 37.1299 31.1413C37.0197 31.1887 36.9206 31.2586 36.839 31.3465C36.7516 31.434 36.6827 31.5383 36.6365 31.653C36.5902 31.7677 36.5676 31.8906 36.5699 32.0143C36.5688 32.1791 36.6107 32.3412 36.6915 32.4848C36.7685 32.6256 36.8831 32.7422 37.0224 32.8217C37.1626 32.8989 37.32 32.9393 37.48 32.9393C37.6399 32.9393 37.7973 32.8989 37.9375 32.8217C38.076 32.7411 38.1903 32.6247 38.2684 32.4848C38.3484 32.3409 38.3902 32.179 38.39 32.0143C38.3923 31.8906 38.3697 31.7677 38.3234 31.653C38.2772 31.5383 38.2083 31.434 38.1209 31.3465C38.0389 31.2583 37.9395 31.1882 37.829 31.1405C37.7185 31.0928 37.5993 31.0686 37.479 31.0693V31.0713Z" fill="#101014"/>
    <path d="M42.3905 29.9373V30.2303C42.3015 30.189 42.2054 30.1653 42.1074 30.1606C42.0565 30.1589 42.0061 30.1713 41.9618 30.1964C41.929 30.2134 41.9035 30.2417 41.8901 30.2762C41.8732 30.3561 41.8652 30.4377 41.8662 30.5194V30.8344H42.3526V31.0936H41.8662V33.161H41.5671V31.0956H41.2681V30.8364H41.5731V30.4716C41.5668 30.3515 41.5824 30.2312 41.6189 30.1167C41.6517 30.0436 41.7068 29.9829 41.7764 29.9432C41.857 29.8972 41.9488 29.8745 42.0416 29.8775C42.1601 29.8809 42.2776 29.9011 42.3905 29.9373" fill="#101014"/>
    <path d="M46.9556 32.3913L47.2088 32.5229C47.1368 32.6714 47.0397 32.8063 46.9217 32.9216C46.8149 33.0198 46.6904 33.0969 46.5549 33.1489C46.4075 33.2028 46.2514 33.2292 46.0944 33.2267C45.9277 33.235 45.7613 33.2059 45.6074 33.1414C45.4535 33.0769 45.3161 32.9786 45.2052 32.8538C44.997 32.6217 44.8826 32.3204 44.8842 32.0085C44.881 31.7226 44.9768 31.4444 45.1554 31.2211C45.2624 31.0788 45.4022 30.9644 45.5629 30.8877C45.7236 30.811 45.9005 30.7742 46.0784 30.7805C46.2611 30.7742 46.4427 30.8118 46.6078 30.8902C46.7729 30.9686 46.9168 31.0855 47.0274 31.231C47.2022 31.4594 47.293 31.741 47.2846 32.0285H45.1913C45.1876 32.2757 45.2806 32.5146 45.4504 32.6944C45.5299 32.7778 45.6259 32.8438 45.7324 32.8881C45.8388 32.9323 45.9532 32.954 46.0685 32.9515C46.1867 32.9518 46.304 32.9315 46.4154 32.8917C46.5195 32.8541 46.6161 32.798 46.7005 32.7263C46.8019 32.6303 46.8879 32.5194 46.9556 32.3973V32.3913ZM46.9556 31.7693C46.9257 31.6308 46.8666 31.5003 46.7822 31.3865C46.7004 31.2876 46.5966 31.2091 46.4792 31.1573C46.3547 31.0977 46.2184 31.067 46.0804 31.0676C45.8599 31.0606 45.6453 31.14 45.4823 31.2888C45.3478 31.4201 45.2531 31.5866 45.2092 31.7693H46.9556Z" fill="#101014"/>
    <path d="M51.2017 31.0897L51.0024 31.2891C50.882 31.1529 50.7132 31.0692 50.5319 31.0558C50.4859 31.0548 50.4403 31.0629 50.3975 31.0797C50.3547 31.0965 50.3157 31.1216 50.2827 31.1535C50.2501 31.1809 50.224 31.2151 50.2061 31.2537C50.1882 31.2923 50.1789 31.3343 50.179 31.3768C50.1806 31.4572 50.211 31.5343 50.2647 31.5941C50.3693 31.696 50.4907 31.779 50.6236 31.8393C50.7967 31.9173 50.9516 32.0307 51.0781 32.1723C51.1567 32.2782 51.1981 32.4072 51.1958 32.5391C51.1981 32.6293 51.1816 32.719 51.1472 32.8024C51.1129 32.8858 51.0615 32.9612 50.9964 33.0236C50.9307 33.0894 50.8523 33.141 50.7659 33.1753C50.6795 33.2096 50.5869 33.2258 50.494 33.2229C50.3608 33.2228 50.2293 33.1929 50.1092 33.1352C49.9908 33.0795 49.887 32.9969 49.8062 32.894L49.9936 32.6807C50.0516 32.7563 50.1253 32.8184 50.2096 32.8628C50.294 32.9072 50.3869 32.9328 50.482 32.9379C50.5949 32.9408 50.7045 32.8993 50.7871 32.8222C50.8247 32.7928 50.8559 32.756 50.8789 32.7142C50.9019 32.6723 50.9162 32.6262 50.9208 32.5787C50.9255 32.5312 50.9205 32.4832 50.906 32.4377C50.8916 32.3921 50.8681 32.35 50.8369 32.3138C50.7261 32.2108 50.5987 32.1272 50.4601 32.0666C50.2951 31.993 50.1486 31.8833 50.0315 31.7456C49.9556 31.6408 49.9157 31.5142 49.9179 31.3848C49.916 31.303 49.931 31.2217 49.9619 31.1459C49.9927 31.0701 50.0388 31.0015 50.0973 30.9442C50.1582 30.8859 50.2301 30.8404 50.3089 30.8103C50.3876 30.7802 50.4716 30.766 50.5558 30.7688C50.8038 30.7843 51.0358 30.8967 51.2017 31.0818" fill="#101014"/>
    <path d="M55.0933 31.0895L54.8939 31.2889C54.7738 31.1523 54.6048 31.0685 54.4234 31.0556C54.3307 31.054 54.2411 31.0891 54.1742 31.1533C54.1421 31.181 54.1162 31.2153 54.0984 31.2538C54.0805 31.2923 54.071 31.3341 54.0706 31.3766C54.0721 31.457 54.1026 31.5341 54.1563 31.5939C54.2612 31.6962 54.3834 31.7792 54.5171 31.8391C54.6894 31.9175 54.8435 32.0309 54.9697 32.172C55.049 32.2777 55.091 32.4067 55.0893 32.5389C55.0913 32.629 55.0746 32.7186 55.0403 32.8019C55.0059 32.8853 54.9548 32.9607 54.8899 33.0233C54.8238 33.089 54.7449 33.1405 54.6582 33.1748C54.5715 33.2091 54.4787 33.2254 54.3855 33.2227C54.2524 33.2224 54.1209 33.1924 54.0008 33.135C53.8823 33.0793 53.7786 32.9967 53.6978 32.8937L53.8871 32.6804C53.9447 32.7561 54.018 32.8182 54.102 32.8627C54.186 32.9071 54.2787 32.9326 54.3736 32.9376C54.487 32.9402 54.5971 32.8988 54.6806 32.822C54.72 32.7886 54.7516 32.7471 54.7733 32.7003C54.795 32.6534 54.8062 32.6024 54.8062 32.5508C54.8066 32.4669 54.7769 32.3855 54.7225 32.3216C54.6117 32.2185 54.4843 32.135 54.3457 32.0744C54.1806 32.0007 54.0342 31.891 53.9171 31.7534C53.8411 31.6486 53.8013 31.5219 53.8034 31.3925C53.8009 31.3104 53.8157 31.2288 53.847 31.1528C53.8783 31.0769 53.9252 31.0084 53.9848 30.9519C54.0453 30.8935 54.1168 30.8479 54.1953 30.8178C54.2737 30.7876 54.3574 30.7736 54.4414 30.7765C54.69 30.7919 54.9227 30.9043 55.0893 31.0895" fill="#101014"/>
    <path d="M57.9175 29.8773C57.9832 29.8778 58.0461 29.9043 58.0924 29.951C58.1387 29.9977 58.1647 30.0608 58.1647 30.1265C58.1591 30.188 58.1308 30.2452 58.0852 30.2868C58.0397 30.3285 57.9802 30.3516 57.9185 30.3516C57.8567 30.3516 57.7972 30.3285 57.7517 30.2868C57.7061 30.2452 57.6778 30.188 57.6722 30.1265C57.6722 30.0611 57.6979 29.9983 57.7438 29.9517C57.7897 29.9051 57.8521 29.8784 57.9175 29.8773V29.8773ZM57.7679 30.8363H58.069V33.1628H57.7679V30.8363Z" fill="#101014"/>
    <path d="M61.9793 30.7763C62.148 30.7735 62.3152 30.8077 62.4692 30.8766C62.6232 30.9455 62.7601 31.0474 62.8704 31.175C63.0811 31.4076 63.1963 31.711 63.193 32.0248C63.1897 32.3386 63.0681 32.6396 62.8525 32.8676C62.7383 32.9831 62.6023 33.0748 62.4524 33.1373C62.3025 33.1999 62.1417 33.2321 61.9793 33.2321C61.8169 33.2321 61.6561 33.1999 61.5062 33.1373C61.3563 33.0748 61.2203 32.9831 61.1061 32.8676C60.8908 32.6399 60.7692 32.3395 60.7655 32.0262C60.7618 31.7129 60.8763 31.4097 61.0862 31.177C61.1968 31.0492 61.3341 30.9473 61.4884 30.8784C61.6427 30.8095 61.8103 30.7753 61.9793 30.7783V30.7763ZM61.9793 31.0713C61.8591 31.0701 61.7399 31.0939 61.6293 31.1413C61.5188 31.1886 61.4194 31.2585 61.3374 31.3465C61.25 31.434 61.1811 31.5383 61.1348 31.653C61.0886 31.7677 61.0659 31.8906 61.0682 32.0143C61.0678 32.1792 61.1104 32.3414 61.1918 32.4848C61.2688 32.6256 61.3834 32.7422 61.5228 32.8217C61.6626 32.8989 61.8196 32.9393 61.9793 32.9393C62.139 32.9393 62.296 32.8989 62.4358 32.8217C62.5752 32.7422 62.6898 32.6256 62.7668 32.4848C62.8475 32.3412 62.8895 32.1791 62.8884 32.0143C62.8907 31.8906 62.868 31.7677 62.8218 31.653C62.7755 31.5383 62.7067 31.434 62.6193 31.3465C62.5376 31.2584 62.4386 31.1883 62.3284 31.1406C62.2183 31.0929 62.0994 31.0686 61.9793 31.0693V31.0713Z" fill="#101014"/>
    <path d="M65.9362 30.8364H66.2352V31.2531C66.3409 31.1063 66.4769 30.9839 66.6339 30.8942C66.7799 30.8162 66.9429 30.7758 67.1084 30.7766C67.2722 30.7739 67.4331 30.8197 67.5709 30.9082C67.7039 30.9947 67.808 31.119 67.87 31.265C67.945 31.4903 67.9774 31.7276 67.9657 31.9648V33.161H67.6666V32.0505C67.6729 31.8711 67.6616 31.6915 67.6327 31.5142C67.6081 31.3792 67.5377 31.2567 67.4334 31.1674C67.3225 31.0849 67.1866 31.0433 67.0486 31.0497C66.8701 31.0487 66.6972 31.1125 66.5622 31.2292C66.4228 31.3434 66.3236 31.4992 66.2791 31.6737C66.242 31.8829 66.2273 32.0954 66.2352 32.3077V33.161H65.9362V30.8364Z" fill="#101014"/>
    <path d="M73.1159 30.8363V33.1628H72.8208V32.7641C72.7061 32.9078 72.562 33.0254 72.3982 33.109C72.1752 33.2158 71.9244 33.2497 71.6811 33.2061C71.4378 33.1625 71.2144 33.0434 71.0425 32.8658C70.9286 32.7516 70.839 32.6155 70.779 32.4658C70.7191 32.3161 70.69 32.1558 70.6936 31.9946C70.691 31.8349 70.721 31.6764 70.7816 31.5286C70.8423 31.3809 70.9324 31.2471 71.0465 31.1353C71.1553 31.0204 71.2868 30.9293 71.4326 30.8679C71.5785 30.8065 71.7355 30.776 71.8938 30.7785C72.074 30.7754 72.2521 30.8172 72.4121 30.9001C72.5711 30.9897 72.7075 31.1145 72.8109 31.2649V30.8383L73.1159 30.8363ZM71.9197 31.0656C71.7574 31.064 71.5977 31.106 71.4572 31.1872C71.3158 31.269 71.1999 31.3884 71.1222 31.5321C71.0398 31.6752 70.9965 31.8374 70.9966 32.0026C70.9969 32.1676 71.0402 32.3298 71.1222 32.473C71.2018 32.6177 71.3189 32.7382 71.4612 32.8219C71.599 32.9047 71.7569 32.9482 71.9177 32.9475C72.0809 32.9476 72.2413 32.9043 72.3822 32.8219C72.5246 32.7446 72.6422 32.6285 72.7211 32.487C72.8014 32.3412 72.842 32.1769 72.8388 32.0105C72.8417 31.8857 72.8192 31.7615 72.7726 31.6457C72.726 31.5298 72.6562 31.4247 72.5676 31.3367C72.4841 31.2493 72.3835 31.1801 72.272 31.1334C72.1605 31.0868 72.0405 31.0637 71.9197 31.0656V31.0656Z" fill="#101014"/>
    <path d="M76.2338 29.9375H75.9348V33.1632H76.2338V29.9375Z" fill="#101014"/>
    <path d="M78.6606 11.7017C78.8394 11.7002 79.0166 11.7347 79.1817 11.8032C79.3468 11.8717 79.4964 11.9728 79.6215 12.1004C79.7433 12.2224 79.8395 12.3675 79.9046 12.527C80.0356 12.8574 80.0356 13.2254 79.9046 13.5558C79.8371 13.7171 79.7374 13.863 79.6115 13.9844C79.485 14.1076 79.3361 14.2057 79.173 14.2735C79.0119 14.3407 78.8391 14.3753 78.6646 14.3751C78.4884 14.3751 78.3141 14.3392 78.1522 14.2695C77.9872 14.2005 77.8375 14.0996 77.7117 13.9724C77.5886 13.8496 77.4916 13.7031 77.4266 13.5418C77.3164 13.2693 77.2988 12.968 77.3767 12.6845C77.41 12.5656 77.459 12.4517 77.5223 12.3456C77.6376 12.1466 77.8038 11.9819 78.0039 11.8684C78.2039 11.7549 78.4306 11.6966 78.6606 11.6997V11.7017ZM78.6606 11.925C78.5152 11.9235 78.3709 11.9506 78.236 12.0047C78.1042 12.0584 77.9848 12.1385 77.8851 12.24C77.7776 12.3453 77.6916 12.4706 77.6319 12.6088C77.5744 12.7444 77.5446 12.8901 77.5442 13.0374C77.5434 13.1818 77.5719 13.3249 77.6279 13.4581C77.682 13.5924 77.7635 13.7139 77.8672 13.8149C77.9708 13.9216 78.0949 14.0063 78.232 14.0641C78.3661 14.122 78.5106 14.1518 78.6566 14.1518C78.801 14.1516 78.9439 14.1232 79.0773 14.0681C79.2144 14.0099 79.34 13.9275 79.4481 13.8249C79.5506 13.7252 79.6324 13.6063 79.6888 13.4749C79.7453 13.3435 79.7753 13.2023 79.777 13.0593C79.7781 12.9088 79.751 12.7594 79.6973 12.6188C79.6427 12.4841 79.5613 12.362 79.458 12.2599C79.3557 12.1521 79.2321 12.0666 79.0952 12.0087C78.9584 11.9535 78.8121 11.9257 78.6646 11.927L78.6606 11.925ZM78.1044 12.2699H78.6865C78.8518 12.2586 79.0168 12.296 79.161 12.3775C79.2129 12.4123 79.2549 12.46 79.2829 12.5159C79.3109 12.5719 79.3238 12.6341 79.3205 12.6965C79.3213 12.7885 79.2903 12.8779 79.2328 12.9497C79.1706 13.0217 79.0866 13.0714 78.9935 13.0912L79.3265 13.7531H78.9277L78.6467 13.155H78.4692V13.7531H78.1084L78.1044 12.2699ZM78.4652 12.4991V12.9298H78.6427C78.7232 12.9355 78.8036 12.9174 78.8739 12.8779C78.899 12.8605 78.919 12.8367 78.932 12.8091C78.9449 12.7814 78.9503 12.7509 78.9477 12.7204C78.9503 12.688 78.9443 12.6554 78.9303 12.626C78.9163 12.5966 78.8948 12.5714 78.8679 12.553C78.7939 12.5117 78.7093 12.493 78.6247 12.4991H78.4652Z" fill="#101014"/>
</svg>
