<svg width="48" height="48" viewBox="0 0 48 48" fill="none" xmlns="http://www.w3.org/2000/svg">
    <path d="M29.984 9.83662C29.4699 9.15822 28.8662 8.55272 28.1893 8.03669C27.523 7.51351 26.7813 7.09428 25.9894 6.79326C25.1991 6.49968 24.3629 6.34894 23.5199 6.34806C22.6791 6.3343 21.8418 6.45946 21.0417 6.71848C19.4435 7.21759 18.0193 8.28363 17.2332 9.75662C17.0343 10.1207 16.8701 10.5026 16.7428 10.8974C16.6205 11.2951 16.5321 11.7023 16.4784 12.1148C16.3725 12.9368 16.4167 13.7711 16.6089 14.5773V14.5617C16.7268 14.9622 16.8877 15.3488 17.0889 15.7146C17.2818 16.0861 17.5015 16.4429 17.7462 16.7824C18.2463 17.4578 18.8255 18.0708 19.4714 18.6084C20.1218 19.1402 20.8205 19.61 21.5582 20.0119C22.3043 20.3945 23.0921 20.7405 23.8695 21.1057C24.2538 21.2797 24.652 21.4692 25.0312 21.6866C25.4103 21.904 25.7807 22.1283 26.1389 22.3822C26.8581 22.8738 27.5269 23.4353 28.1354 24.0587C28.7536 24.6764 29.2806 25.3791 29.7005 26.1455C29.9066 26.5377 30.071 26.9504 30.191 27.3768C30.5404 28.6678 30.4611 30.0373 29.9649 31.2793C29.656 32.1062 29.2026 32.8717 28.6258 33.54C28.3254 33.8586 27.9997 34.1523 27.6519 34.4183C27.478 34.5557 27.3041 34.6774 27.1302 34.8061C26.9563 34.9348 26.7702 35.0495 26.5807 35.1539C25.8354 35.6054 25.0337 35.9562 24.1964 36.1973C23.36 36.4338 22.4935 36.5469 21.6243 36.533C20.7581 36.5118 19.8997 36.3635 19.0766 36.093C18.2629 35.8076 17.4914 35.4139 16.7828 34.9226C16.073 34.437 15.4299 33.8605 14.8698 33.2079C16.0279 34.4726 17.4986 35.4101 19.134 35.926C20.7654 36.4147 22.5042 36.4147 24.1355 35.926C25.7541 35.4339 27.2174 34.5303 28.3823 33.3035C28.9157 32.6601 29.335 31.9302 29.6223 31.1454C29.9165 30.3687 30.0508 29.5405 30.017 28.7107C29.9741 27.8811 29.7472 27.0714 29.3527 26.3403C28.9453 25.6083 28.4352 24.9384 27.838 24.3508C27.2471 23.7506 26.5975 23.2111 25.8989 22.7405C25.5511 22.5022 25.1911 22.2831 24.8225 22.0779C24.4538 21.8727 24.0747 21.6988 23.6851 21.5162C22.913 21.1492 22.1356 20.8031 21.36 20.3979C20.595 19.9757 19.8718 19.482 19.2001 18.9232C18.5318 18.3589 17.9334 17.7167 17.4175 17.0103C17.1581 16.6566 16.9256 16.284 16.7219 15.8955C16.5122 15.5089 16.3448 15.1008 16.2228 14.6782V14.6625C15.8174 12.9389 16.0724 11.1259 16.9376 9.58098C17.3689 8.82063 17.9512 8.1566 18.6488 7.62975C19.3439 7.10494 20.1289 6.71127 20.9652 6.46805C22.6295 5.94926 24.421 6.0143 26.0433 6.65239C26.8392 6.97772 27.581 7.42221 28.2432 7.9706C28.9073 8.5082 29.4927 9.13633 29.9823 9.83662" fill="#101014"/>
    <path d="M31.2564 9.83642C30.7424 9.15802 30.1386 8.55252 29.4617 8.03649C28.7948 7.51327 28.0525 7.09404 27.26 6.79306C26.4699 6.4992 25.6336 6.34844 24.7906 6.34786C23.9503 6.33423 23.1136 6.45938 22.3142 6.71828C20.716 7.21043 19.2899 8.28343 18.5056 9.75642C18.3067 10.1205 18.1425 10.5024 18.0152 10.8972C17.8921 11.2946 17.8037 11.7019 17.7509 12.1146C17.6411 12.9378 17.683 13.7742 17.8743 14.5823V14.5667C17.9912 14.9648 18.1497 15.3496 18.3474 15.7144C18.5447 16.0863 18.7691 16.4432 19.0186 16.7822C19.5186 17.4572 20.0971 18.0702 20.742 18.6083C21.3925 19.1399 22.0912 19.6097 22.8289 20.0117C23.5732 20.3943 24.3628 20.7403 25.1384 21.1055C25.5245 21.2795 25.921 21.469 26.3001 21.6864C26.6792 21.9038 27.0496 22.1281 27.4079 22.382C28.1279 22.8731 28.7973 23.4347 29.4061 24.0585C30.0249 24.6757 30.5519 25.3785 30.9712 26.1453C31.178 26.5372 31.3424 26.9499 31.4616 27.3766C31.5763 27.8047 31.6462 28.2436 31.6703 28.6861C31.7018 29.5708 31.5546 30.4527 31.2373 31.2791C30.9279 32.1058 30.4745 32.8712 29.8982 33.5398C29.5974 33.8579 29.2717 34.1516 28.9243 34.4181C28.7504 34.5555 28.5765 34.6772 28.4026 34.8059C28.2287 34.9346 28.0426 35.0494 27.8531 35.1537C27.1084 35.6052 26.3073 35.956 25.4706 36.1971C23.792 36.6804 22.0065 36.644 20.349 36.0928C19.5318 35.8147 18.7556 35.4281 18.0413 34.9433C17.3311 34.4582 16.6879 33.8817 16.1283 33.2286C17.2856 34.4943 18.7566 35.4319 20.3925 35.9467C22.0239 36.4354 23.7627 36.4354 25.394 35.9467C27.0187 35.4505 28.486 34.5394 29.6513 33.3033C30.1846 32.6599 30.604 31.93 30.8912 31.1452C31.186 30.3686 31.3209 29.5405 31.2877 28.7105C31.2629 28.2989 31.1959 27.891 31.0877 27.4931C30.9733 27.0946 30.8171 26.7093 30.6217 26.3436C30.2154 25.6108 29.7052 24.9407 29.1069 24.3541C28.5164 23.7535 27.8668 23.2139 27.1679 22.7437C26.8201 22.5055 26.4601 22.2864 26.0931 22.0812C25.7262 21.876 25.3453 21.6864 24.9558 21.5038C24.1836 21.1368 23.4063 20.7908 22.6289 20.3856C21.865 19.9672 21.1424 19.4775 20.4707 18.923C19.8053 18.3598 19.2092 17.7194 18.6952 17.0153C18.4363 16.6612 18.2038 16.2886 17.9995 15.9005C17.7898 15.5139 17.6224 15.1058 17.5004 14.6832V14.6675C17.095 12.9439 17.35 11.1309 18.2152 9.58599C18.6417 8.825 19.2193 8.15923 19.9125 7.62955C20.6102 7.10468 21.3974 6.71105 22.2359 6.46785C23.9007 5.94865 25.6929 6.01369 27.3157 6.65219C28.1109 6.97794 28.852 7.4224 29.5139 7.9704C30.1779 8.50809 30.7633 9.1362 31.2529 9.83642" fill="#101014"/>
    <path d="M32.5291 9.83662C32.0151 9.15867 31.412 8.55323 30.7361 8.03669C30.0689 7.51383 29.3267 7.09463 28.5344 6.79326C27.7442 6.49968 26.908 6.34894 26.065 6.34806C25.2242 6.3343 24.3868 6.45946 23.5868 6.71848C21.9886 7.21759 20.5643 8.28363 19.78 9.75662C19.5811 10.1207 19.4169 10.5026 19.2896 10.8974C19.1659 11.2948 19.0769 11.7021 19.0235 12.1148C18.9144 12.9381 18.9568 13.7745 19.1487 14.5825V14.5669C19.2674 14.9671 19.4283 15.3536 19.6287 15.7199C19.8235 16.09 20.0455 16.4452 20.293 16.7824C20.793 17.4574 21.3715 18.0704 22.0164 18.6084C22.6669 19.1402 23.3655 19.61 24.1033 20.0119C24.8494 20.3945 25.6372 20.7405 26.4145 21.1057C26.7988 21.2797 27.1971 21.4692 27.5762 21.6866C27.9553 21.904 28.3257 22.1283 28.684 22.3822C29.408 22.8685 30.082 23.4254 30.6961 24.0448C31.3148 24.662 31.8419 25.3648 32.2612 26.1316C32.6792 26.9163 32.9169 27.7843 32.9569 28.6724C32.989 29.5569 32.8423 30.4388 32.5256 31.2653C32.2162 32.0921 31.7628 32.8575 31.1865 33.5261C30.8851 33.8443 30.5588 34.1379 30.2109 34.4044C30.037 34.5417 29.8631 34.6635 29.6892 34.7922C29.5153 34.9209 29.3292 35.0356 29.1396 35.14C28.395 35.5915 27.5939 35.9423 26.7571 36.1834C25.9201 36.4198 25.053 36.5329 24.1833 36.5191C23.3171 36.4979 22.4587 36.3496 21.6356 36.0791C20.8182 35.8014 20.0419 35.4147 19.3278 34.9296C18.6181 34.4439 17.975 33.8675 17.4149 33.2148C18.5729 34.4796 20.0436 35.4171 21.6791 35.933C23.3104 36.4217 25.0492 36.4217 26.6806 35.933C28.3001 35.4393 29.7635 34.5332 30.9274 33.3035C31.4607 32.6601 31.8801 31.9302 32.1673 31.1454C32.4616 30.3687 32.5959 29.5405 32.5621 28.7107C32.5381 28.299 32.471 27.891 32.3621 27.4933C32.2491 27.0946 32.0934 26.7092 31.8978 26.3438C31.4903 25.6118 30.9802 24.9419 30.3831 24.3543C29.7922 23.754 29.1426 23.2145 28.444 22.7439C28.0962 22.5057 27.7362 22.2866 27.3675 22.0814C26.9988 21.8761 26.6197 21.7022 26.2302 21.5196C25.458 21.1301 24.6807 20.791 23.9137 20.3858C23.1496 19.9678 22.4269 19.4781 21.7556 18.9232C21.0863 18.3594 20.4872 17.7171 19.9713 17.0103C19.7131 16.6558 19.4806 16.2832 19.2757 15.8955C19.0666 15.5086 18.8993 15.1005 18.7766 14.6782V14.6625C18.3727 12.9386 18.6283 11.126 19.493 9.58098C19.9212 8.82154 20.5 8.15755 21.1939 7.62975C21.889 7.10494 22.6739 6.71127 23.5103 6.46805C25.1745 5.94926 26.9661 6.0143 28.5883 6.65239C29.3842 6.97772 30.126 7.42221 30.7883 7.9706C31.4528 8.50773 32.0383 9.13592 32.5273 9.83662" fill="#101014"/>
    <path d="M33.8015 9.83662C33.2874 9.15822 32.6837 8.55272 32.0068 8.03669C31.3398 7.51347 30.5975 7.09424 29.8051 6.79326C29.0155 6.49953 28.1799 6.34878 27.3374 6.34806C26.4966 6.3343 25.6593 6.45946 24.8592 6.71848C23.261 7.21063 21.8367 8.28364 21.0507 9.75662C20.8518 10.1207 20.6876 10.5026 20.5603 10.8974C20.4372 11.2948 20.3487 11.7021 20.2959 12.1148C20.1871 12.938 20.2289 13.7742 20.4194 14.5825V14.5669C20.5373 14.9674 20.6982 15.354 20.8994 15.7199C21.0947 16.0897 21.3168 16.4448 21.5637 16.7824C22.0638 17.4578 22.6429 18.0708 23.2888 18.6085C23.939 19.1406 24.6377 19.6104 25.3757 20.0119C26.1218 20.3945 26.9096 20.7405 27.6869 21.1057C28.0713 21.2797 28.4695 21.4692 28.8486 21.6866C29.2277 21.904 29.5982 22.1283 29.9547 22.3822C30.6747 22.8733 31.3441 23.4349 31.9529 24.0587C32.5711 24.6764 33.0981 25.3791 33.518 26.1456C33.7233 26.538 33.8877 26.9506 34.0084 27.3768C34.3579 28.6678 34.2785 30.0373 33.7823 31.2793C33.4735 32.1062 33.02 32.8717 32.4433 33.54C32.1424 33.8581 31.8168 34.1518 31.4694 34.4183C31.2955 34.5557 31.1216 34.6774 30.9477 34.8061C30.7738 34.9348 30.5877 35.0496 30.3981 35.1539C29.6537 35.6057 28.8525 35.9566 28.0156 36.1973C26.3371 36.6806 24.5515 36.6442 22.8941 36.093C22.077 35.8146 21.3008 35.428 20.5863 34.9435C19.8769 34.4575 19.2338 33.881 18.6734 33.2288C19.8314 34.4935 21.3021 35.431 22.9376 35.9469C24.5689 36.4356 26.3077 36.4356 27.9391 35.9469C29.5649 35.451 31.0334 34.5399 32.1998 33.3035C32.7325 32.6597 33.1518 31.9299 33.4398 31.1454C33.7332 30.3685 33.8674 29.5405 33.8345 28.7107C33.7916 27.8811 33.5647 27.0714 33.1702 26.3403C32.7627 25.6083 32.2527 24.9384 31.6555 24.3508C31.0642 23.751 30.4147 23.2115 29.7164 22.7405C29.3686 22.5022 29.0086 22.2831 28.6399 22.0779C28.2713 21.8727 27.8921 21.6988 27.5026 21.5162C26.7304 21.1492 25.9531 20.8032 25.1775 20.3979C24.4127 19.98 23.6895 19.4903 23.0175 18.9354C22.3488 18.3715 21.7503 17.7293 21.235 17.0224C20.9756 16.6688 20.7431 16.2961 20.5394 15.9077C20.3296 15.5211 20.1623 15.1129 20.0403 14.6903V14.6747C19.6348 12.9511 19.8899 11.1381 20.755 9.59315C21.1851 8.82904 21.7669 8.1609 22.4645 7.62975C23.1605 7.10525 23.946 6.71162 24.7827 6.46805C26.447 5.94926 28.2385 6.0143 29.8608 6.65239C30.6561 6.97773 31.3973 7.42223 32.0589 7.9706C32.723 8.50829 33.3084 9.1364 33.798 9.83662" fill="#101014"/>
    <path d="M27.7884 6.24495C28.5799 6.41063 29.3374 6.70998 30.0283 7.13013C31.4376 7.99131 32.513 9.30521 33.0786 10.8569C33.649 12.421 33.649 14.1362 33.0786 15.7002C32.5098 17.2521 31.4338 18.5664 30.0248 19.4305C29.3343 19.8506 28.5784 20.1521 27.7884 20.3227C29.2984 19.8246 30.6213 18.879 31.5813 17.6115C32.5287 16.3644 33.0461 14.8438 33.056 13.2777C33.0542 11.7117 32.5392 10.1895 31.59 8.94397C30.629 7.67629 29.302 6.73417 27.7884 6.24495" fill="#101014"/>
    <path d="M26.5212 6.24495C27.3105 6.4108 28.0656 6.71016 28.7542 7.13013C30.1637 7.99153 31.2396 9.30529 31.8062 10.8569C32.0867 11.6338 32.2303 12.4535 32.2306 13.2795C32.2253 14.105 32.0795 14.9237 31.7993 15.7002C31.2308 17.2507 30.157 18.5647 28.7507 19.4305C28.0625 19.8502 27.3089 20.1517 26.5212 20.3227C28.0292 19.8233 29.35 18.8779 30.3089 17.6115C31.2551 16.3639 31.7718 14.8435 31.7819 13.2777C31.7799 11.712 31.2656 10.19 30.3176 8.94397C29.3574 7.67772 28.0326 6.73583 26.5212 6.24495" fill="#101014"/>
    <path d="M25.2584 6.28706C26.0455 6.45116 26.7989 6.74815 27.4862 7.16529C28.8877 8.02111 29.9575 9.32698 30.5209 10.8695C30.8001 11.6419 30.943 12.4568 30.9434 13.2781C30.9413 14.0992 30.7983 14.9139 30.5209 15.6867C30.1055 16.8362 29.4045 17.8612 28.4839 18.6653C27.5634 19.4693 26.4534 20.026 25.2584 20.283C26.7592 19.7861 28.0738 18.8456 29.0287 17.5858C29.9695 16.3458 30.4833 14.8345 30.493 13.2781C30.4918 11.7217 29.9805 10.2086 29.0374 8.97044C28.0815 7.71092 26.7627 6.77445 25.2584 6.28706" fill="#101014"/>
    <path d="M27.5895 20.6673C26.139 20.6673 24.7211 20.2371 23.5151 19.4313C22.3091 18.6255 21.3692 17.4801 20.8141 16.1401C20.259 14.8 20.1138 13.3255 20.3968 11.9029C20.6797 10.4803 21.3782 9.1736 22.4038 8.14797C23.4295 7.12235 24.7362 6.42389 26.1588 6.14092C27.5813 5.85795 29.0559 6.00318 30.3959 6.55824C31.736 7.11331 32.8813 8.05328 33.6872 9.25929C34.493 10.4653 34.9231 11.8832 34.9231 13.3336C34.9213 15.2781 34.148 17.1423 32.7731 18.5173C31.3982 19.8922 29.5339 20.6654 27.5895 20.6673ZM27.5895 6.44868C26.2278 6.44868 24.8966 6.85248 23.7644 7.609C22.6322 8.36553 21.7497 9.44082 21.2286 10.6989C20.7075 11.9569 20.5712 13.3413 20.8368 14.6768C21.1025 16.0124 21.7582 17.2391 22.7211 18.202C23.684 19.1649 24.9107 19.8206 26.2463 20.0863C27.5818 20.3519 28.9662 20.2156 30.2242 19.6945C31.4823 19.1734 32.5576 18.2909 33.3141 17.1587C34.0706 16.0265 34.4744 14.6953 34.4744 13.3336C34.4726 11.5082 33.7466 9.75805 32.4558 8.46727C31.1651 7.17649 29.4149 6.45052 27.5895 6.44868V6.44868Z" fill="#101014"/>
    <path d="M25.8667 6.26949L25.6424 44.4402L25.418 6.26949H25.8667Z" fill="#101014"/>
    <path d="M25.228 6.26949L25.0036 44.4402L24.7793 6.26949H25.228Z" fill="#101014"/>
    <path d="M24.5931 6.26949L24.3688 44.4402L24.1445 6.26949H24.5931Z" fill="#101014"/>
    <path d="M23.9565 6.26949L23.7322 44.4402L23.5078 6.26949H23.9565Z" fill="#101014"/>
</svg>
